<?xml version="1.0" encoding="UTF-8" standalone="no"?><!DOCTYPE svg PUBLIC "-//W3C//DTD SVG 1.1//EN" "http://www.w3.org/Graphics/SVG/1.1/DTD/svg11.dtd"><!-- Generated by graphviz version 2.40.1 (20161225.0304)
 --><!-- Title: %0 Pages: 1 --><svg xmlns="http://www.w3.org/2000/svg" xmlns:xlink="http://www.w3.org/1999/xlink" width="308pt" height="404pt" viewBox="0.00 0.00 307.53 404.00">
<g id="graph0" class="graph" transform="scale(1 1) rotate(0) translate(4 400)">
<title>%0</title>
<polygon fill="#ffffff" stroke="transparent" points="-4,4 -4,-400 303.5304,-400 303.5304,4 -4,4"/>
<!-- Plain -->
<g id="node1" class="node">
<title>Plain</title>
<ellipse fill="none" stroke="#000000" cx="70.9515" cy="-378" rx="27" ry="18"/>
</g>
<!-- Dagg -->
<g id="node2" class="node">
<title>Dagg</title>
<ellipse fill="none" stroke="#000000" cx="31.9515" cy="-306" rx="31.9031" ry="18"/>
<text text-anchor="middle" x="31.9515" y="-301.8" font-family="Times,serif" font-size="14.00" fill="#000000">Dagg</text>
</g>
<!-- Dagg&#45;&gt;Plain -->
<g id="edge1" class="edge">
<title>Dagg-&gt;Plain</title>
<path fill="none" stroke="#000000" d="M41.3923,-323.4292C45.9912,-331.9193 51.6179,-342.3071 56.7233,-351.7326"/>
<polygon fill="#000000" stroke="#000000" points="53.7572,-353.6054 61.5976,-360.7313 59.9123,-350.2714 53.7572,-353.6054"/>
</g>
<!-- Mon -->
<g id="node3" class="node">
<title>Mon</title>
<ellipse fill="none" stroke="#000000" cx="110.9515" cy="-306" rx="29.0567" ry="18"/>
<text text-anchor="middle" x="110.9515" y="-301.8" font-family="Times,serif" font-size="14.00" fill="#000000">Mon</text>
</g>
<!-- Mon&#45;&gt;Plain -->
<g id="edge2" class="edge">
<title>Mon-&gt;Plain</title>
<path fill="none" stroke="#000000" d="M101.4721,-323.063C96.64,-331.7607 90.6626,-342.5201 85.2819,-352.2052"/>
<polygon fill="#000000" stroke="#000000" points="82.1598,-350.6181 80.3629,-361.0595 88.279,-354.0177 82.1598,-350.6181"/>
</g>
<!-- Str -->
<g id="node4" class="node">
<title>Str</title>
<ellipse fill="none" stroke="#000000" cx="72.9515" cy="-234" rx="27" ry="18"/>
<text text-anchor="middle" x="72.9515" y="-229.8" font-family="Times,serif" font-size="14.00" fill="#000000">Str</text>
</g>
<!-- Str&#45;&gt;Mon -->
<g id="edge3" class="edge">
<title>Str-&gt;Mon</title>
<path fill="none" stroke="#000000" d="M81.957,-251.063C86.4343,-259.5463 91.9467,-269.9908 96.9586,-279.487"/>
<polygon fill="#000000" stroke="#000000" points="93.9837,-281.3491 101.7467,-288.5593 100.1744,-278.0818 93.9837,-281.3491"/>
</g>
<!-- Seq -->
<g id="node5" class="node">
<title>Seq</title>
<ellipse fill="none" stroke="#000000" cx="69.9515" cy="-162" rx="27" ry="18"/>
<text text-anchor="middle" x="69.9515" y="-157.8" font-family="Times,serif" font-size="14.00" fill="#000000">Seq</text>
</g>
<!-- Seq&#45;&gt;Str -->
<g id="edge4" class="edge">
<title>Seq-&gt;Str</title>
<path fill="none" stroke="#000000" d="M70.7085,-180.1686C71.0294,-187.869 71.4109,-197.0257 71.7675,-205.5834"/>
<polygon fill="#000000" stroke="#000000" points="68.2709,-205.7411 72.1843,-215.5867 75.2649,-205.4497 68.2709,-205.7411"/>
</g>
<!-- Sym -->
<g id="node6" class="node">
<title>Sym</title>
<ellipse fill="none" stroke="#000000" cx="149.9515" cy="-234" rx="28.9929" ry="18"/>
<text text-anchor="middle" x="149.9515" y="-229.8" font-family="Times,serif" font-size="14.00" fill="#000000">Sym</text>
</g>
<!-- Sym&#45;&gt;Mon -->
<g id="edge5" class="edge">
<title>Sym-&gt;Mon</title>
<path fill="none" stroke="#000000" d="M140.7091,-251.063C136.114,-259.5463 130.4565,-269.9908 125.3127,-279.487"/>
<polygon fill="#000000" stroke="#000000" points="122.0839,-278.0994 120.3986,-288.5593 128.239,-281.4334 122.0839,-278.0994"/>
</g>
<!-- Comp -->
<g id="node7" class="node">
<title>Comp</title>
<ellipse fill="none" stroke="#000000" cx="149.9515" cy="-162" rx="34.7922" ry="18"/>
<text text-anchor="middle" x="149.9515" y="-157.8" font-family="Times,serif" font-size="14.00" fill="#000000">Comp</text>
</g>
<!-- Comp&#45;&gt;Sym -->
<g id="edge6" class="edge">
<title>Comp-&gt;Sym</title>
<path fill="none" stroke="#000000" d="M149.9515,-180.1686C149.9515,-187.869 149.9515,-197.0257 149.9515,-205.5834"/>
<polygon fill="#000000" stroke="#000000" points="146.4516,-205.5867 149.9515,-215.5867 153.4516,-205.5868 146.4516,-205.5867"/>
</g>
<!-- QMarkov -->
<g id="node8" class="node">
<title>QMarkov</title>
<ellipse fill="none" stroke="#000000" cx="250.9515" cy="-162" rx="48.6578" ry="18"/>
<text text-anchor="middle" x="250.9515" y="-157.8" font-family="Times,serif" font-size="14.00" fill="#000000">QMarkov</text>
</g>
<!-- QMarkov&#45;&gt;Sym -->
<g id="edge7" class="edge">
<title>QMarkov-&gt;Sym</title>
<path fill="none" stroke="#000000" d="M228.5363,-177.9791C213.5315,-188.6757 193.6763,-202.8298 177.6782,-214.2345"/>
<polygon fill="#000000" stroke="#000000" points="175.3536,-211.5933 169.2424,-220.2481 179.4169,-217.2932 175.3536,-211.5933"/>
</g>
<!-- Markov -->
<g id="node9" class="node">
<title>Markov</title>
<ellipse fill="none" stroke="#000000" cx="250.9515" cy="-90" rx="41.7153" ry="18"/>
<text text-anchor="middle" x="250.9515" y="-85.8" font-family="Times,serif" font-size="14.00" fill="#000000">Markov</text>
</g>
<!-- Markov&#45;&gt;QMarkov -->
<g id="edge8" class="edge">
<title>Markov-&gt;QMarkov</title>
<path fill="none" stroke="#000000" d="M250.9515,-108.1686C250.9515,-115.869 250.9515,-125.0257 250.9515,-133.5834"/>
<polygon fill="#000000" stroke="#000000" points="247.4516,-133.5867 250.9515,-143.5867 254.4516,-133.5868 247.4516,-133.5867"/>
</g>
<!-- Cart -->
<g id="node10" class="node">
<title>Cart</title>
<ellipse fill="none" stroke="#000000" cx="250.9515" cy="-18" rx="27.8248" ry="18"/>
<text text-anchor="middle" x="250.9515" y="-13.8" font-family="Times,serif" font-size="14.00" fill="#000000">Cart</text>
</g>
<!-- Cart&#45;&gt;Markov -->
<g id="edge9" class="edge">
<title>Cart-&gt;Markov</title>
<path fill="none" stroke="#000000" d="M250.9515,-36.1686C250.9515,-43.869 250.9515,-53.0257 250.9515,-61.5834"/>
<polygon fill="#000000" stroke="#000000" points="247.4516,-61.5867 250.9515,-71.5867 254.4516,-61.5868 247.4516,-61.5867"/>
</g>
</g>
</svg>